<svg xmlns="http://www.w3.org/2000/svg" version="1.1" xmlns:xlink="http://www.w3.org/1999/xlink" width="170.65181182083663" height="200" viewBox="-0.9173160195350647 21.26283073425293 7.856295585632324 10.927167892456055"><path d="M4.38 21.80L4.38 21.80Q5.16 21.41 5.94 21.29Q6.72 21.17 6.88 21.58Q7.05 21.99 6.73 22.38Q6.41 22.77 5.85 22.82Q5.29 22.87 4.65 23.62Q4.00 24.38 3.91 25.40Q3.81 26.43 3.96 26.82Q4.10 27.21 4.28 28.34Q4.45 29.47 4.04 30.28Q3.63 31.09 3.16 31.46Q2.70 31.84 2.00 32.01Q1.31 32.19 0.82 32.19Q0.33 32.19-0.22 31.95Q-0.78 31.72-0.91 30.99Q-1.04 30.25 1.14 28.27Q3.32 26.29 1.48 28.15Q-0.35 30.02 0.05 30.47Q0.45 30.92 1.01 30.70Q1.56 30.49 1.88 30.13Q2.21 29.77 2.36 29.25Q2.52 28.73 2.50 28.29Q2.48 27.85 2.20 26.34Q1.91 24.82 2.20 24.06Q2.48 23.30 3.04 22.74Q3.59 22.19 4.38 21.80Z" fill="#E8E0CE"></path></svg>