<svg xmlns="http://www.w3.org/2000/svg" version="1.1" xmlns:xlink="http://www.w3.org/1999/xlink" width="319.9150102469721" height="200" viewBox="0.13627907633781433 11.724687576293945 51.18138122558594 28.24852180480957"><path d="M10.37 11.89L10.37 11.89Q11.09 11.66 11.64 11.75Q12.19 11.84 12.64 12.00Q13.09 12.17 13.34 12.58Q13.59 12.99 13.67 13.50Q13.75 14.00 13.54 14.45Q13.32 14.90 13.03 15.23Q12.73 15.57 12.49 15.97Q12.25 16.37 11.79 16.51Q11.33 16.66 11.12 16.51Q10.92 16.37 11.36 15.28Q11.80 14.20 11.40 14.03Q11.00 13.87 10.46 14.01Q9.92 14.16 8.92 15.09Q7.91 16.02 7.25 17.24Q6.58 18.46 6.46 19.23Q6.33 20 6.40 20.75Q6.46 21.50 6.65 22.63Q6.84 23.75 7.04 24.64Q7.25 25.53 7.10 26.97Q6.95 28.42 6.39 29.36Q5.82 30.29 5.33 30.95Q4.84 31.60 4.21 32.01Q3.57 32.42 2.78 32.47Q1.99 32.52 1.55 32.35Q1.11 32.19 0.64 31.51Q0.18 30.84 0.14 30.28Q0.10 29.73 0.49 28.99Q0.88 28.26 1.72 27.38Q2.56 26.50 3.15 26.31Q3.75 26.11 4.21 25.63Q4.67 25.16 4.17 22.95Q3.67 20.74 3.93 19.16Q4.18 17.58 4.61 16.69Q5.04 15.80 5.98 14.78Q6.91 13.75 7.63 13.30Q8.34 12.85 8.99 12.48Q9.65 12.11 10.37 11.89ZM4.32 26.39L4.32 26.39Q4.02 25.90 2.80 27.42Q1.58 28.95 1.67 29.51Q1.76 30.08 2.04 30.16Q2.32 30.23 2.62 30.17Q2.91 30.10 3.14 29.85Q3.38 29.61 3.79 29.24Q4.20 28.87 4.43 28.30Q4.67 27.73 4.64 27.30Q4.61 26.88 4.32 26.39ZM12.81 22.56L12.81 22.56Q13.18 22.21 13.72 22.11Q14.26 22.01 14.61 22.17Q14.96 22.32 15.21 22.72Q15.45 23.13 16.43 23.11Q17.40 23.09 18.86 23.12Q20.31 23.14 18.24 23.20Q16.17 23.26 15.89 23.37Q15.61 23.48 15.65 24.06Q15.70 24.65 15.73 25.30Q15.76 25.96 15.74 26.76Q15.72 27.56 15.63 27.95Q15.53 28.34 15.33 28.77Q15.14 29.20 14.76 29.68Q14.38 30.16 13.82 30.57Q13.26 30.98 12.79 31.18Q12.32 31.39 11.78 31.20Q11.23 31.02 10.89 30.62Q10.55 30.21 10.34 29.79Q10.14 29.36 10.17 28.28Q10.20 27.21 10.40 26.55Q10.61 25.90 11.04 25.19Q11.46 24.47 11.29 24.52Q11.11 24.57 11.20 24.47Q11.29 24.38 11.88 23.63Q12.46 22.89 12.81 22.56ZM13.79 25.63L13.79 25.63Q13.36 25.10 12.71 25.92Q12.07 26.74 11.94 27.66Q11.82 28.57 12.04 28.95Q12.27 29.32 12.51 29.38Q12.75 29.43 13.20 29.05Q13.65 28.67 13.94 27.40Q14.22 26.13 13.79 25.63ZM18.16 22.48L18.16 22.48Q19.90 21.31 20.29 21.17Q20.68 21.04 20.95 21.27Q21.21 21.50 21.26 21.85Q21.31 22.19 21.05 23.34Q20.80 24.49 21.05 24.28Q21.31 24.06 21.78 23.85Q22.25 23.63 22.96 23.38Q23.67 23.13 24.30 23.16Q24.92 23.20 25.24 23.47Q25.57 23.73 25.65 23.90Q25.74 24.06 25.89 24.38Q26.04 24.69 26.04 24.76Q26.04 24.82 26.07 25.05Q26.11 25.27 26.04 25.79Q25.96 26.31 25.62 27.04Q25.27 27.77 24.59 28.41Q23.91 29.04 23.42 29.32Q22.93 29.59 22.37 29.80Q21.82 30.02 21.22 30.11Q20.63 30.20 20.28 29.94Q19.94 29.69 19.93 29.37Q19.92 29.04 20.14 28.63Q20.35 28.22 20.58 27.90Q20.80 27.58 21.33 27.14Q21.86 26.70 22.43 26.45Q23.01 26.19 23.34 26.12Q23.67 26.05 22.90 26.58Q22.13 27.11 21.55 27.62Q20.98 28.13 21.18 28.36Q21.39 28.59 21.92 28.39Q22.46 28.18 23.49 27.17Q24.51 26.15 24.15 25.42Q23.79 24.69 22.76 25.07Q21.74 25.45 20.94 26.15Q20.14 26.86 19.26 28.99Q18.38 31.13 18.01 32.16Q17.64 33.18 17.02 34.98Q16.41 36.78 15.59 38.47Q14.77 40.16 14.25 39.95Q13.73 39.75 13.61 39.39Q13.50 39.04 13.54 38.65Q13.59 38.26 13.87 37.67Q14.14 37.07 14.61 35.68Q15.08 34.30 16.59 30.34Q18.11 26.39 18.39 25.65Q18.67 24.92 19.12 23.50Q19.57 22.07 19.21 22.20Q18.85 22.32 17.64 22.98Q16.43 23.63 18.16 22.48ZM33.05 21.66L33.05 21.66Q33.50 21.54 34.03 21.62Q34.57 21.70 34.89 21.95Q35.21 22.21 35.51 22.95Q35.80 23.69 35.24 23.95Q34.69 24.20 34.24 23.77Q33.79 23.34 33.30 23.59Q32.81 23.85 32.33 24.11Q31.86 24.38 31.15 24.94Q30.45 25.51 29.71 26.39Q28.96 27.27 28.89 27.51Q28.81 27.75 29.27 27.44Q29.73 27.13 30.67 26.49Q31.62 25.86 33.06 25.20Q34.49 24.53 34.87 24.68Q35.25 24.82 35.53 25.21Q35.80 25.61 35.84 25.89Q35.88 26.17 35.75 26.34Q35.63 26.50 35.46 27.09Q35.29 27.68 35.49 28.22Q35.68 28.77 35.99 28.97Q36.29 29.18 36.82 29.09Q37.34 29.00 38.12 28.29Q38.89 27.58 38.05 28.62Q37.21 29.67 36.72 29.95Q36.23 30.23 35.96 30.22Q35.68 30.21 35.24 30.05Q34.80 29.88 34.41 29.53Q34.02 29.18 33.80 28.67Q33.57 28.16 33.50 27.92Q33.42 27.68 33.13 27.38Q32.85 27.09 32.44 27.26Q32.03 27.42 31.01 28.16Q29.98 28.91 29.09 29.38Q28.20 29.86 27.50 30.05Q26.80 30.23 26.59 30.18Q26.39 30.12 26.14 29.74Q25.90 29.36 25.86 28.91Q25.82 28.46 25.99 28.00Q26.15 27.54 27.24 26.16Q28.32 24.79 29.33 23.91Q30.33 23.03 31.46 22.41Q32.60 21.80 33.05 21.66ZM40.70 21.95L40.70 21.95Q41.11 21.76 41.75 22.03Q42.38 22.30 42.02 23.05Q41.66 23.79 40.84 25.50Q40.02 27.21 40.67 26.44Q41.33 25.66 42.26 24.86Q43.18 24.06 43.59 23.83Q44.00 23.59 44.48 23.48Q44.96 23.36 45.57 23.54Q46.17 23.71 46.60 24.52Q47.03 25.33 47.06 27.20Q47.09 29.06 47.98 29.02Q48.87 28.98 49.71 28.37Q50.55 27.75 50.96 27.12Q51.37 26.48 51.31 26.78Q51.25 27.07 50.86 27.64Q50.47 28.20 49.20 29.39Q47.93 30.59 47.00 30.61Q46.07 30.63 45.65 29.86Q45.23 29.10 45.11 27.43Q44.98 25.76 44.67 25.73Q44.36 25.70 43.30 26.36Q42.25 27.01 41.37 28.07Q40.49 29.12 39.93 29.85Q39.38 30.59 38.93 30.74Q38.48 30.90 38.19 30.51Q37.91 30.12 38.00 29.55Q38.09 28.98 38.34 27.81Q38.59 26.64 39.06 25.34Q39.53 24.04 38.85 24.49Q38.16 24.94 37.18 25.85Q36.19 26.76 37.88 24.99Q39.57 23.22 39.76 22.93Q39.94 22.64 40.12 22.39Q40.29 22.15 40.70 21.95Z" fill="black"></path></svg>